<?xml version="1.0" standalone="no"?>
<!DOCTYPE svg PUBLIC "-//W3C//DTD SVG 20010904//EN"
 "http://www.w3.org/TR/2001/REC-SVG-20010904/DTD/svg10.dtd">
<svg version="1.0" xmlns="http://www.w3.org/2000/svg"
 width="260.000000pt" height="260.000000pt" viewBox="0 0 260.000000 260.000000"
 preserveAspectRatio="xMidYMid meet">
<metadata>
Created by potrace 1.14, written by Peter Selinger 2001-2017
</metadata>
<g transform="translate(0.000000,260.000000) scale(0.100000,-0.100000)"
fill="#000000" stroke="none">
<path d="M1248 1950 c-172 -29 -350 -136 -453 -272 -55 -72 -116 -198 -136
-278 -14 -58 -18 -263 -9 -490 3 -69 1 -171 -4 -227 l-9 -103 77 0 76 0 0 68
c0 37 3 83 6 103 l6 36 207 6 c171 5 222 10 302 31 417 106 639 456 639 1009
0 118 -1 128 -17 123 -100 -29 -276 -34 -423 -11 -103 16 -187 17 -262 5z
m247 -150 c33 -6 116 -13 185 -16 l125 -5 -3 -57 c-18 -349 -158 -601 -397
-713 -110 -52 -165 -61 -373 -66 l-192 -5 19 46 c55 127 167 252 309 345 45
30 82 59 82 64 0 13 -60 117 -67 117 -3 0 -45 -26 -92 -57 -82 -55 -234 -195
-279 -258 l-21 -30 -1 82 c-1 248 180 480 426 548 60 16 198 19 279 5z"/>
</g>
</svg>
